<?xml version="1.0" encoding="utf-8"?>
<!-- Generator: Adobe Illustrator 24.0.2, SVG Export Plug-In . SVG Version: 6.00 Build 0)  -->
<svg version="1.1" id="圖層_1" xmlns="http://www.w3.org/2000/svg" xmlns:xlink="http://www.w3.org/1999/xlink" x="0px" y="0px"
	 viewBox="0 0 168 48" style="enable-background:new 0 0 168 48;" xml:space="preserve">
<style type="text/css">
	.st0{fill:#0180E1;}
	.st1{fill:#FEB001;}
</style>
<g>
	<path class="st0" d="M10.2,13.4c1.4-1,2.7-1.7,4.2-2.2c5.6-1.6,10.6-0.6,14.8,3.5c5.2,5,5.3,13,0.4,18.3c-3.3,3.5-7.4,4.9-12.2,4.5
		c-2.6-0.2-4.9-1.1-7-2.6c-0.1,0-0.1-0.1-0.2-0.1c-0.1,0.2-0.1,0.3-0.1,0.5c0,3.3,0,6.6,0,10c0,0.4-0.1,0.5-0.5,0.5
		c-1.9,0-3.7,0-5.6,0c-0.3,0-0.5,0-0.5-0.4c0-11.5,0-22.9,0-34.4c0-0.4,0.1-0.4,0.4-0.4c1.9,0,3.8,0,5.6,0c0.4,0,0.5,0.1,0.4,0.5
		C10.2,11.7,10.2,12.5,10.2,13.4z M19,15.4c-2.6,0.1-4.7,0.9-6.4,2.7c-3.1,3.3-2.5,8.4,1.4,10.8c3.2,1.9,7.4,1.4,10.1-1.3
		c2.3-2.3,2.9-5.7,1.4-8.4C24.1,16.6,21.7,15.6,19,15.4z"/>
	<path class="st0" d="M91.1,10.5c5.9,0,11.1,4,12.8,9.7c0.1,0.3-0.1,0.4-0.3,0.5c-4.5,2.2-9.1,4.5-13.6,6.7c-1.4,0.7-2.7,1.3-4.1,2
		c-0.2,0.1-0.4,0.1-0.1,0.4c2.3,2.3,5.6,3.3,8.6,2.1c2.1-0.8,3.5-2.4,4.3-4.5c0.1-0.3,0.3-0.4,0.6-0.4c1.7,0,3.3-0.1,5-0.2
		c0.3,0,0.4,0.1,0.3,0.4c-0.6,2.4-1.7,4.5-3.4,6.3c-2.8,3-6.3,4.4-10.4,4.3c-5.7-0.2-10.8-4-12.6-9.4c-1.7-5.1-0.7-9.7,3.1-13.6
		c2.2-2.3,5.1-3.6,8.3-4.1C90,10.5,90.6,10.5,91.1,10.5z M83.3,24.8c1.4-0.7,2.8-1.4,4.1-2c2.8-1.4,5.7-2.8,8.5-4.2
		c0.3-0.2,0.3-0.2,0.1-0.5c-2-1.9-4.2-2.7-7-2.1C85,16.9,82.4,20.8,83.3,24.8z"/>
	<path class="st0" d="M146.8,15.9c3.7-2.5,7.6-2.6,11.5-1.1c3,1.1,4.5,3.6,5.1,6.6c0.2,1,0.3,2,0.3,3c0,4.3,0,8.5,0,12.8
		c0,0.4-0.1,0.5-0.5,0.4c-1.4-0.1-2.7-0.1-4.1-0.1c-0.4,0-0.8,0-1.3,0c-0.3,0-0.4-0.1-0.4-0.4c0-1.5,0-3,0-4.6c0-2.7,0-5.4,0-8.1
		c0-1.4-0.3-2.7-1.3-3.8c-1.3-1.5-3-1.9-4.9-1.7c-1.6,0.2-2.9,0.7-3.9,2c-0.5,0.7-0.8,1.4-0.8,2.3c0,4.6,0,9.1,0,13.7
		c0,0.4-0.1,0.5-0.5,0.5c-1.8,0-3.6,0-5.4,0c-0.3,0-0.4-0.1-0.4-0.4c0-11.4,0-22.8,0-34.2c0-0.3,0.1-0.4,0.4-0.4c1.8,0,3.6,0,5.4,0
		c0.4,0,0.4,0.1,0.4,0.5c0,4.1,0,8.2,0,12.3C146.8,15.6,146.8,15.8,146.8,15.9z"/>
	<path class="st0" d="M122.6,37.7c-6.6,0-12.2-4.4-13.5-10.9c-1.6-7.7,3.6-15.2,11.3-16.2c5.4-0.7,9.6,1.3,12.9,5.6
		c0.2,0.2,0.1,0.3-0.1,0.4c-1.2,0.6-2.5,1.2-3.7,1.8c-0.3,0.1-0.4,0.1-0.6-0.1c-2.3-2.4-5.1-2.9-8.2-1.9c-3.1,1-4.9,3.3-5.4,6.6
		c-0.8,5.2,3.6,9.7,8.8,9.2c1.9-0.2,3.5-1.1,4.7-2.5c0.3-0.3,0.4-0.7,0.3-1.1c-0.1-0.3-0.1-0.6-0.1-0.9c0.1-1.4,0.7-2.1,2.1-2.5
		c0.4-0.1,0.8-0.2,1.3-0.3c0.9-0.2,1.8-0.4,2.6-0.9c0.6-0.3,1.2-0.4,1.8-0.2c0.7,0.3,1,0.8,0.9,1.6c-0.6,3.7-2.3,6.8-5.4,8.9
		C129.4,36.4,126.2,37.7,122.6,37.7z M131.4,27.7c0.5,0,1-0.4,1-0.9c0-0.5-0.5-0.9-1-0.9c-0.5,0-1,0.4-1,0.9
		C130.4,27.3,130.9,27.7,131.4,27.7z"/>
	<path class="st0" d="M66.2,22.6c0-4.8,0-9.6,0-14.5c0-0.6,0-0.6-0.6-0.6c-3.2,0-6.4,0-9.6,0c-0.4,0-0.5-0.1-0.5-0.5
		c0-1.6,0-3.2,0-4.8c0-0.3,0.1-0.4,0.4-0.4c9.2,0,18.4,0,27.5,0c0.3,0,0.4,0.1,0.4,0.4c0,1.6,0,3.2,0,4.8c0,0.4-0.1,0.5-0.5,0.5
		c-3.4,0-6.9,0-10.3,0c-0.4,0-0.5,0.1-0.5,0.5c0,9.7,0,19.4,0,29.1c0,0.5-0.1,0.6-0.6,0.6c-1.8,0-3.6,0-5.3,0
		c-0.5,0-0.5-0.1-0.5-0.6C66.2,32.3,66.2,27.5,66.2,22.6z"/>
	<path class="st1" d="M46.2,27.2c0.6-1.6,1.1-3.1,1.7-4.7c1.2-3.4,2.4-6.8,3.6-10.3c0.1-0.3,0.3-0.4,0.6-0.4c1.8,0,3.6,0,5.4,0
		c0.5,0,0.5,0,0.4,0.5c-2,5.4-4,10.8-5.9,16.2c-1.3,3.6-2.6,7.2-4,10.7c-0.7,1.8-2,3-3.5,4c-2,1.3-4.2,1.9-6.5,2.2
		c-0.6,0.1-1.3,0.1-1.9,0.2c-0.2,0-0.3-0.1-0.3-0.3c0-1.6,0-3.2,0-4.8c0-0.3,0.2-0.3,0.4-0.3c1.4,0,2.8-0.2,4.1-0.6
		c1.7-0.6,2.5-1.7,2.6-3.4c0-0.8-0.1-1.6-0.3-2.3c-0.7-2.3-1.6-4.5-2.5-6.7c-2-5-4-9.9-6.1-14.9c-0.1-0.3-0.1-0.4,0.3-0.4
		c1.8,0,3.7,0,5.5,0c0.3,0,0.5,0.1,0.6,0.4c1.9,4.9,3.9,9.7,5.8,14.6C46.1,27,46.1,27.1,46.2,27.2z"/>
</g>
</svg>
